<svg width="534" height="534" viewBox="0 0 534 534" fill="none" xmlns="http://www.w3.org/2000/svg">
<g filter="url(#filter0_d_26_2)">
<circle cx="257" cy="257" r="257" fill="#0197CD"/>
</g>
<path d="M204 82C204 76.4772 208.477 72 214 72H240C245.523 72 250 76.4772 250 82V116H204V82Z" fill="#FFE13B"/>
<path d="M287 82C287 76.4772 291.477 72 297 72H323C328.523 72 333 76.4772 333 82V116H287V82Z" fill="#FFE13B"/>
<path d="M374 82C374 76.4772 378.477 72 384 72H410C415.523 72 420 76.4772 420 82V116H374V82Z" fill="#FFE13B"/>
<g filter="url(#filter1_d_26_2)">
<path d="M124.006 72.2304C132.164 70.7919 139.944 76.2399 141.383 84.3983L146.859 115.454C149.736 131.771 138.841 147.33 122.524 150.207L112.207 152.025L134.199 276.75C161.496 279.091 185.716 302.733 191.418 335.07C198.047 372.665 177.136 407.776 144.713 413.493C112.29 419.21 80.6319 393.368 74.0028 355.774C68.1862 322.787 83.5733 291.711 109.337 280.728L87.4149 156.397L75.4598 158.506C59.1431 161.383 43.5831 150.487 40.7059 134.171L35.2303 103.115C33.792 94.9569 39.2392 87.1769 47.3973 85.7382L124.006 72.2304ZM122.423 103.398C120.984 95.2399 113.204 89.7919 105.046 91.2304L71.3973 97.1639C63.2392 98.6027 57.7918 106.383 59.2303 114.541L61.9325 129.865C63.3711 138.023 71.1511 143.472 79.3094 142.033L112.958 136.099C121.116 134.661 126.563 126.881 125.125 118.723L122.423 103.398Z" fill="#103F61"/>
</g>
<path d="M484.949 320.264C493.157 321.606 499.683 327.945 501.306 336.056C467.959 439.312 371.051 514 256.696 514C225.966 514 196.496 508.605 169.181 498.713C169.066 498.671 168.951 498.63 168.837 498.588C168.459 498.45 168.081 498.312 167.704 498.173C167.528 498.108 167.352 498.043 167.176 497.978C166.753 497.82 166.33 497.661 165.908 497.502C165.808 497.464 165.708 497.427 165.608 497.39C165.201 497.235 164.795 497.079 164.389 496.923C164.215 496.856 164.042 496.789 163.868 496.722C163.462 496.564 163.056 496.406 162.65 496.246C162.56 496.211 162.469 496.175 162.379 496.14C161.935 495.964 161.491 495.787 161.048 495.609C160.923 495.559 160.797 495.509 160.672 495.459C160.293 495.306 159.916 495.152 159.538 494.998C159.375 494.931 159.212 494.865 159.049 494.798C158.658 494.637 158.267 494.475 157.877 494.312C157.743 494.257 157.609 494.201 157.475 494.145C157.053 493.968 156.632 493.79 156.211 493.611C156.102 493.565 155.993 493.519 155.885 493.473C155.515 493.315 155.145 493.156 154.776 492.996C154.555 492.9 154.334 492.803 154.112 492.707C153.784 492.564 153.455 492.42 153.127 492.275C152.977 492.209 152.827 492.143 152.678 492.077C152.275 491.899 151.873 491.719 151.472 491.539C151.315 491.469 151.158 491.398 151.001 491.327C150.686 491.185 150.371 491.042 150.057 490.898C149.818 490.79 149.581 490.68 149.343 490.57C148.982 490.404 148.621 490.237 148.261 490.069C148.194 490.038 148.127 490.007 148.061 489.976C147.618 489.769 147.176 489.562 146.735 489.354C146.597 489.288 146.459 489.221 146.32 489.155C145.954 488.981 145.588 488.806 145.223 488.63C145.067 488.555 144.911 488.479 144.755 488.403C144.488 488.274 144.22 488.145 143.953 488.015V488.012C89.2327 461.256 45.4228 415.632 21 359.612H127.802L203.696 81V116H419.696V81L484.949 320.264Z" fill="#FFE13B"/>
<rect x="274" y="166" width="31" height="21" rx="10.5" fill="#EBB30E"/>
<rect x="316" y="187" width="31" height="21" rx="10.5" fill="#EBB30E"/>
<rect x="193" y="377" width="31" height="21" rx="10.5" fill="#EBB30E"/>
<rect x="113" y="418" width="31" height="21" rx="10.5" fill="#EBB30E"/>
<rect x="375" y="137" width="31" height="21" rx="10.5" fill="#EBB30E"/>
<rect x="395" y="247" width="31" height="21" rx="10.5" fill="#EBB30E"/>
<rect x="305" y="436" width="31" height="21" rx="10.5" fill="#EBB30E"/>
<rect x="206" y="418" width="79" height="21" rx="10.5" fill="#EBB30E"/>
<path d="M494.238 356C491.243 363.17 487.932 370.176 484.322 377H445.5C439.701 377 435 372.299 435 366.5C435 360.701 439.701 356 445.5 356H494.238Z" fill="#EBB30E"/>
<path d="M228 76.0146L229.471 76.4092L171.907 291.24L171.785 293.498C171.661 295.803 172.091 298.014 172.96 300H173V300.09C174.682 303.861 177.956 306.804 182.037 308H316.5C322.299 308 327 312.701 327 318.5C327 324.299 322.299 329 316.5 329L140 329.001H148.5C143.806 329.001 140 332.807 140 337.501V347.501L140.011 347.938C140.239 352.429 143.953 356.001 148.5 356.001H147.392C153.173 356.022 157.853 360.714 157.854 366.5C157.853 372.299 153.152 377 147.354 377H28.1152C25.4812 371.077 23.0367 365.015 20.79 358.829C22.6665 357.075 25.1859 356 27.957 356H118V342C118 330.955 126.955 322 138 322H138.248L203.168 79.7148C203.413 78.8007 203.779 77.9514 204.241 77.1768C205.044 74.195 207.765 72 211 72H228V76.0146Z" fill="#EBB30E"/>
<path d="M228 76.0146L229.471 76.4092L171.907 291.24L171.785 293.498C171.661 295.803 172.091 298.014 172.96 300H173V300.09C174.682 303.861 177.956 306.804 182.037 308H316.5C322.299 308 327 312.701 327 318.5C327 324.299 322.299 329 316.5 329L140 329.001H148.5C143.806 329.001 140 332.807 140 337.501V347.501L140.011 347.938C140.239 352.429 143.953 356.001 148.5 356.001H147.392C153.173 356.022 157.853 360.714 157.854 366.5C157.853 372.299 153.152 377 147.354 377H28.1152C25.4812 371.077 23.0367 365.015 20.79 358.829C22.6665 357.075 25.1859 356 27.957 356H118V342C118 330.955 126.955 322 138 322H138.248L203.168 79.7148C203.413 78.8007 203.779 77.9514 204.241 77.1768C205.044 74.195 207.765 72 211 72H228V76.0146Z" fill="#EBB30E"/>
<path d="M227.5 74C227.5 72.8954 228.395 72 229.5 72H240.5L231.088 74.2409C230.425 74.3988 229.914 74.9283 229.781 75.5967L229.677 76.1165C229.574 76.6302 229.123 77 228.599 77C227.992 77 227.5 76.508 227.5 75.901V74Z" fill="#EBB30E"/>
<rect x="227" y="72" width="3" height="1" fill="#EBB30E"/>
<defs>
<filter id="filter0_d_26_2" x="0" y="0" width="534" height="534" filterUnits="userSpaceOnUse" color-interpolation-filters="sRGB">
<feFlood flood-opacity="0" result="BackgroundImageFix"/>
<feColorMatrix in="SourceAlpha" type="matrix" values="0 0 0 0 0 0 0 0 0 0 0 0 0 0 0 0 0 0 127 0" result="hardAlpha"/>
<feOffset dx="10" dy="10"/>
<feGaussianBlur stdDeviation="5"/>
<feComposite in2="hardAlpha" operator="out"/>
<feColorMatrix type="matrix" values="0 0 0 0 0 0 0 0 0 0 0 0 0 0 0 0 0 0 0.25 0"/>
<feBlend mode="normal" in2="BackgroundImageFix" result="effect1_dropShadow_26_2"/>
<feBlend mode="normal" in="SourceGraphic" in2="effect1_dropShadow_26_2" result="shape"/>
</filter>
<filter id="filter1_d_26_2" x="31" y="72" width="165.644" height="350.285" filterUnits="userSpaceOnUse" color-interpolation-filters="sRGB">
<feFlood flood-opacity="0" result="BackgroundImageFix"/>
<feColorMatrix in="SourceAlpha" type="matrix" values="0 0 0 0 0 0 0 0 0 0 0 0 0 0 0 0 0 0 127 0" result="hardAlpha"/>
<feOffset dy="4"/>
<feGaussianBlur stdDeviation="2"/>
<feComposite in2="hardAlpha" operator="out"/>
<feColorMatrix type="matrix" values="0 0 0 0 0 0 0 0 0 0 0 0 0 0 0 0 0 0 0.25 0"/>
<feBlend mode="normal" in2="BackgroundImageFix" result="effect1_dropShadow_26_2"/>
<feBlend mode="normal" in="SourceGraphic" in2="effect1_dropShadow_26_2" result="shape"/>
</filter>
</defs>
</svg>
