<svg xmlns="http://www.w3.org/2000/svg" viewBox="0 0 534 534">
  <path d="M204 82C204 76.477 208.477 72 214 72H240C245.523 72 250 76.477 250 82V116H204V82Z"/>
  <path d="M287 82C287 76.477 291.477 72 297 72H323C328.523 72 333 76.477 333 82V116H287V82Z"/>
  <path d="M374 82C374 76.477 378.477 72 384 72H410C415.523 72 420 76.477 420 82V116H374V82Z"/>
  <path d="M124.006 72.23C132.164 70.792 139.944 76.24 141.383 84.398L146.859 115.454C149.736 131.771 138.841 147.33 122.524 150.207L112.207 152.025L134.199 276.75C161.496 279.091 185.716 302.733 191.418 335.07C198.047 372.665 177.136 407.776 144.713 413.493C112.29 419.21 80.632 393.368 74.003 355.774C68.186 322.787 83.573 291.711 109.337 280.728L87.415 156.397L75.46 158.506C59.143 161.383 43.583 150.487 40.706 134.171L35.23 103.115C33.792 94.957 39.239 87.177 47.397 85.738L124.006 72.23ZM122.423 103.398C120.984 95.24 113.204 89.792 105.046 91.23L71.397 97.164C63.239 98.603 57.792 106.383 59.23 114.541L61.933 129.865C63.371 138.023 71.151 143.472 79.309 142.033L112.958 136.099C121.116 134.661 126.563 126.881 125.125 118.723L122.423 103.398Z"/>
  <path d="M484.949 320.264C493.157 321.606 499.683 327.945 501.306 336.056C467.959 439.312 371.051 514 256.696 514C225.966 514 196.496 508.605 169.181 498.713C168.459 498.45 167.704 498.173 167.176 497.978C166.753 497.82 165.908 497.502 165.608 497.39C164.795 497.079 163.868 496.722 162.65 496.246C161.935 495.964 160.672 495.459 159.049 494.798C157.743 494.257 156.632 493.79 155.885 493.473C154.555 492.9 153.127 492.275 151.472 491.539C149.818 490.79 148.261 490.069 146.735 489.354C145.954 488.981 144.755 488.403 143.953 488.015V488.012C89.233 461.256 45.423 415.632 21 359.612H127.802L203.696 81V116H419.696V81L484.949 320.264Z"/>
</svg>
